<svg xmlns="http://www.w3.org/2000/svg" width="180" height="180" viewBox="0 0 180 180" role="img" aria-label="微信二维码占位">
  <rect width="180" height="180" fill="#ffffff"/>
  <!-- 占位装饰格点，非可扫码；请用真实微信二维码替换本文件 -->
  <g fill="#1A1A1A">
    <!-- 三个定位角 -->
    <rect x="14" y="14" width="36" height="36"/>
    <rect x="20" y="20" width="24" height="24" fill="#ffffff"/>
    <rect x="26" y="26" width="12" height="12"/>
    <rect x="130" y="14" width="36" height="36"/>
    <rect x="136" y="20" width="24" height="24" fill="#ffffff"/>
    <rect x="142" y="26" width="12" height="12"/>
    <rect x="14" y="130" width="36" height="36"/>
    <rect x="20" y="136" width="24" height="24" fill="#ffffff"/>
    <rect x="26" y="142" width="12" height="12"/>
    <!-- 随机点阵装饰 -->
    <rect x="60" y="20" width="8" height="8"/><rect x="76" y="20" width="8" height="8"/><rect x="100" y="20" width="8" height="8"/>
    <rect x="60" y="36" width="8" height="8"/><rect x="92" y="36" width="8" height="8"/><rect x="116" y="36" width="8" height="8"/>
    <rect x="20" y="60" width="8" height="8"/><rect x="44" y="60" width="8" height="8"/><rect x="68" y="60" width="8" height="8"/>
    <rect x="92" y="60" width="8" height="8"/><rect x="116" y="60" width="8" height="8"/><rect x="140" y="60" width="8" height="8"/>
    <rect x="36" y="76" width="8" height="8"/><rect x="60" y="76" width="8" height="8"/><rect x="84" y="76" width="8" height="8"/>
    <rect x="108" y="76" width="8" height="8"/><rect x="132" y="76" width="8" height="8"/><rect x="156" y="76" width="8" height="8"/>
    <rect x="20" y="92" width="8" height="8"/><rect x="52" y="92" width="8" height="8"/><rect x="76" y="92" width="8" height="8"/>
    <rect x="100" y="92" width="8" height="8"/><rect x="124" y="92" width="8" height="8"/><rect x="148" y="92" width="8" height="8"/>
    <rect x="36" y="108" width="8" height="8"/><rect x="68" y="108" width="8" height="8"/><rect x="92" y="108" width="8" height="8"/>
    <rect x="116" y="108" width="8" height="8"/><rect x="140" y="108" width="8" height="8"/>
    <rect x="60" y="124" width="8" height="8"/><rect x="84" y="124" width="8" height="8"/><rect x="108" y="124" width="8" height="8"/>
    <rect x="132" y="124" width="8" height="8"/><rect x="156" y="124" width="8" height="8"/>
    <rect x="60" y="140" width="8" height="8"/><rect x="76" y="140" width="8" height="8"/><rect x="100" y="140" width="8" height="8"/>
    <rect x="124" y="140" width="8" height="8"/><rect x="148" y="140" width="8" height="8"/>
    <rect x="68" y="156" width="8" height="8"/><rect x="92" y="156" width="8" height="8"/><rect x="116" y="156" width="8" height="8"/>
    <rect x="140" y="156" width="8" height="8"/>
  </g>
</svg>
